<svg width="26" height="25" viewBox="0 0 26 25" fill="none" xmlns="http://www.w3.org/2000/svg">
<path d="M12.9999 16.6668C15.3011 16.6668 17.1666 14.8013 17.1666 12.5002C17.1666 10.199 15.3011 8.3335 12.9999 8.3335C10.6987 8.3335 8.83325 10.199 8.83325 12.5002C8.83325 14.8013 10.6987 16.6668 12.9999 16.6668Z" fill="white"/>
<path d="M18.2073 0H7.79062C3.77083 0 0.5 3.27188 0.5 7.29271V17.7094C0.5 21.7292 3.77188 25 7.79271 25H18.2094C22.2292 25 25.5 21.7281 25.5 17.7073V7.29062C25.5 3.27083 22.2281 0 18.2073 0ZM13 18.75C9.55312 18.75 6.75 15.9469 6.75 12.5C6.75 9.05312 9.55312 6.25 13 6.25C16.4469 6.25 19.25 9.05312 19.25 12.5C19.25 15.9469 16.4469 18.75 13 18.75ZM20.2917 6.25C19.7167 6.25 19.25 5.78333 19.25 5.20833C19.25 4.63333 19.7167 4.16667 20.2917 4.16667C20.8667 4.16667 21.3333 4.63333 21.3333 5.20833C21.3333 5.78333 20.8667 6.25 20.2917 6.25Z" fill="white"/>
</svg>
