<svg width="150" height="74" viewBox="0 0 150 74" fill="none" xmlns="http://www.w3.org/2000/svg">
<path d="M10.3267 64.431H12.1634C13.157 64.431 13.8723 64.5237 14.3094 64.7093C14.7505 64.8907 15.0968 65.1875 15.3483 65.5998C15.604 66.008 15.7318 66.4986 15.7318 67.0717C15.7318 67.7066 15.5648 68.2343 15.2308 68.6549C14.901 69.0754 14.4516 69.3681 13.8827 69.533C13.5487 69.6279 12.9406 69.6753 12.0583 69.6753V73.5281H10.3267V64.431ZM12.0583 67.987H12.6087C13.0416 67.987 13.3426 67.956 13.5116 67.8942C13.6806 67.8324 13.8126 67.7313 13.9074 67.5912C14.0063 67.4469 14.0558 67.2737 14.0558 67.0717C14.0558 66.7212 13.9198 66.4656 13.6476 66.3048C13.4497 66.1853 13.0828 66.1255 12.5468 66.1255H12.0583V67.987ZM17.3644 64.431H19.1022V70.3185C19.1022 70.8256 19.1455 71.1843 19.2321 71.3945C19.3228 71.6048 19.4692 71.7738 19.6712 71.9016C19.8773 72.0253 20.1247 72.0872 20.4133 72.0872C20.7184 72.0872 20.9802 72.0171 21.1987 71.8769C21.4214 71.7367 21.5739 71.5594 21.6564 71.3451C21.7429 71.1265 21.7862 70.7122 21.7862 70.102V64.431H23.524V69.8546C23.524 70.7699 23.4725 71.4048 23.3694 71.7594C23.2664 72.114 23.0685 72.4562 22.7757 72.786C22.4871 73.1158 22.1532 73.3611 21.7739 73.5219C21.3946 73.6786 20.9534 73.7569 20.4504 73.7569C19.7908 73.7569 19.2156 73.6065 18.725 73.3055C18.2385 73.0004 17.8901 72.6211 17.6798 72.1676C17.4696 71.7099 17.3644 70.9389 17.3644 69.8546V64.431ZM25.5339 73.5281V64.431H26.9625C27.7912 64.431 28.3973 64.4846 28.7807 64.5918C29.3249 64.7361 29.7578 65.004 30.0794 65.3957C30.401 65.7874 30.5618 66.2492 30.5618 66.781C30.5618 67.1273 30.4876 67.4427 30.3392 67.7272C30.1949 68.0076 29.9578 68.2714 29.628 68.5188C30.1804 68.7786 30.5845 69.1043 30.8401 69.4959C31.0957 69.8835 31.2235 70.3432 31.2235 70.875C31.2235 71.3863 31.0916 71.8522 30.8277 72.2727C30.5639 72.6932 30.2237 73.0086 29.8073 73.2189C29.3909 73.4251 28.8158 73.5281 28.0819 73.5281H25.5339ZM27.2656 66.0822V67.9993H27.6428C28.0633 67.9993 28.3746 67.9107 28.5766 67.7334C28.7828 67.5561 28.8859 67.3149 28.8859 67.0098C28.8859 66.7254 28.789 66.5007 28.5952 66.3357C28.4014 66.1667 28.1066 66.0822 27.7108 66.0822H27.2656ZM27.2656 69.5454V71.8769H27.6985C28.4158 71.8769 28.8982 71.7862 29.1456 71.6048C29.3971 71.4234 29.5228 71.1595 29.5228 70.8132C29.5228 70.4215 29.3765 70.1123 29.0838 69.8856C28.791 69.6588 28.3045 69.5454 27.6243 69.5454H27.2656ZM32.8809 64.431H34.6126V71.8769H37.1358V73.5281H32.8809V64.431ZM38.3293 64.431H40.0486V73.5281H38.3293V64.431ZM50.3579 66.0327L49.1457 67.1892C48.3212 66.3192 47.3935 65.8843 46.3628 65.8843C45.4929 65.8843 44.759 66.1811 44.1612 66.7748C43.5675 67.3685 43.2706 68.1003 43.2706 68.9703C43.2706 69.5763 43.4026 70.1144 43.6664 70.5844C43.9303 71.0544 44.3034 71.4234 44.7858 71.6914C45.2682 71.9594 45.8041 72.0934 46.3937 72.0934C46.8967 72.0934 47.3564 72.0006 47.7728 71.8151C48.1892 71.6254 48.6469 71.2832 49.1457 70.7885L50.3208 72.013C49.6487 72.6685 49.0138 73.1241 48.416 73.3797C47.8182 73.6312 47.1358 73.7569 46.369 73.7569C44.9548 73.7569 43.7963 73.3096 42.8934 72.4149C41.9946 71.5162 41.5452 70.3659 41.5452 68.9641C41.5452 68.057 41.7493 67.251 42.1574 66.546C42.5697 65.841 43.1572 65.2741 43.92 64.8453C44.6868 64.4165 45.5114 64.2021 46.3937 64.2021C47.1441 64.2021 47.8656 64.3609 48.5582 64.6783C49.255 64.9958 49.8549 65.4473 50.3579 66.0327ZM51.7493 64.431H53.4686V73.5281H51.7493V64.431ZM55.4228 64.431H57.476C58.7995 64.431 59.7828 64.5959 60.426 64.9257C61.0691 65.2514 61.5989 65.7833 62.0154 66.5213C62.4318 67.2593 62.64 68.121 62.64 69.1063C62.64 69.8072 62.5225 70.4525 62.2875 71.042C62.0566 71.6275 61.735 72.114 61.3227 72.5015C60.9145 72.8891 60.4713 73.1571 59.9931 73.3055C59.5148 73.4539 58.6861 73.5281 57.507 73.5281H55.4228V64.431ZM57.1483 66.1007V71.8336H57.9522C58.7438 71.8336 59.3169 71.7429 59.6715 71.5615C60.0302 71.3801 60.3229 71.075 60.5497 70.6462C60.7764 70.2174 60.8898 69.6897 60.8898 69.063C60.8898 68.0983 60.6197 67.35 60.0796 66.8181C59.5931 66.3399 58.8119 66.1007 57.7358 66.1007H57.1483ZM67.0556 64.431H68.8119L72.3123 73.5281H70.5126L69.8014 71.6543H66.0908L65.3487 73.5281H63.5491L67.0556 64.431ZM67.9461 66.8429L66.734 69.966H69.1521L67.9461 66.8429ZM73.6605 64.431H75.7137C77.0371 64.431 78.0204 64.5959 78.6636 64.9257C79.3067 65.2514 79.8365 65.7833 80.2529 66.5213C80.6694 67.2593 80.8776 68.121 80.8776 69.1063C80.8776 69.8072 80.7601 70.4525 80.5251 71.042C80.2942 71.6275 79.9726 72.114 79.5603 72.5015C79.1521 72.8891 78.7089 73.1571 78.2307 73.3055C77.7524 73.4539 76.9237 73.5281 75.7446 73.5281H73.6605V64.431ZM75.3859 66.1007V71.8336H76.1898C76.9814 71.8336 77.5545 71.7429 77.9091 71.5615C78.2678 71.3801 78.5605 71.075 78.7873 70.6462C79.014 70.2174 79.1274 69.6897 79.1274 69.063C79.1274 68.0983 78.8574 67.35 78.3173 66.8181C77.8307 66.3399 77.0495 66.1007 75.9734 66.1007H75.3859ZM90.8344 65.6678L89.5542 66.7996C89.1048 66.1729 88.6472 65.8596 88.1813 65.8596C87.9545 65.8596 87.769 65.9214 87.6247 66.0451C87.4804 66.1646 87.4082 66.3007 87.4082 66.4532C87.4082 66.6058 87.4598 66.7501 87.5628 66.8861C87.703 67.0676 88.1256 67.4572 88.8306 68.055C89.4903 68.6075 89.8902 68.9558 90.0304 69.1001C90.3808 69.4547 90.6282 69.7948 90.7725 70.1206C90.9209 70.4421 90.9951 70.7946 90.9951 71.1781C90.9951 71.9243 90.7375 72.5407 90.2221 73.0272C89.7067 73.5137 89.0347 73.7569 88.206 73.7569C87.5587 73.7569 86.9939 73.5982 86.5115 73.2808C86.0332 72.9633 85.623 72.4644 85.2808 71.7841L86.7341 70.906C87.1712 71.7099 87.6742 72.1119 88.2431 72.1119C88.54 72.1119 88.7894 72.0253 88.9914 71.8522C89.1934 71.679 89.2944 71.479 89.2944 71.2523C89.2944 71.0461 89.2182 70.84 89.0656 70.6339C88.9131 70.4277 88.5771 70.1123 88.0576 69.6877C87.0681 68.8796 86.429 68.257 86.1404 67.82C85.8518 67.3788 85.7075 66.9397 85.7075 66.5027C85.7075 65.8719 85.9467 65.3318 86.4249 64.8824C86.9073 64.4289 87.501 64.2021 88.206 64.2021C88.6595 64.2021 89.0904 64.3073 89.4985 64.5175C89.9108 64.7278 90.3561 65.1112 90.8344 65.6678ZM92.5289 64.431H94.2481V73.5281H92.5289V64.431ZM96.2024 64.431H97.8598L101.762 70.4174V64.431H103.494V73.5281H101.83L97.934 67.5602V73.5281H96.2024V64.431ZM109.109 64.431H110.841V71.8769H113.364V73.5281H109.109V64.431ZM114.557 64.431H116.277V73.5281H114.557V64.431ZM119.103 64.431H120.797L122.9 70.7761L125.034 64.431H126.703L128.237 73.5281H126.567L125.59 67.7829L123.655 73.5281H122.127L120.216 67.7829L119.22 73.5281H117.532L119.103 64.431ZM129.499 64.431H131.218V73.5281H129.499V64.431ZM132.269 64.431H137.297V66.1379H135.64V73.5281H133.884V66.1379H132.269V64.431ZM138.491 64.431H143.457V66.1255H140.21V67.7705H143.457V69.4341H140.21V71.8274H143.457V73.5281H138.491V64.431ZM149.839 65.6678L148.559 66.7996C148.11 66.1729 147.652 65.8596 147.186 65.8596C146.959 65.8596 146.774 65.9214 146.629 66.0451C146.485 66.1646 146.413 66.3007 146.413 66.4532C146.413 66.6058 146.465 66.7501 146.568 66.8861C146.708 67.0676 147.13 67.4572 147.835 68.055C148.495 68.6075 148.895 68.9558 149.035 69.1001C149.386 69.4547 149.633 69.7948 149.777 70.1206C149.926 70.4421 150 70.7946 150 71.1781C150 71.9243 149.742 72.5407 149.227 73.0272C148.712 73.5137 148.039 73.7569 147.211 73.7569C146.563 73.7569 145.999 73.5982 145.516 73.2808C145.038 72.9633 144.628 72.4644 144.286 71.7841L145.739 70.906C146.176 71.7099 146.679 72.1119 147.248 72.1119C147.545 72.1119 147.794 72.0253 147.996 71.8522C148.198 71.679 148.299 71.479 148.299 71.2523C148.299 71.0461 148.223 70.84 148.07 70.6339C147.918 70.4277 147.582 70.1123 147.062 69.6877C146.073 68.8796 145.434 68.257 145.145 67.82C144.857 67.3788 144.712 66.9397 144.712 66.5027C144.712 65.8719 144.951 65.3318 145.43 64.8824C145.912 64.4289 146.506 64.2021 147.211 64.2021C147.664 64.2021 148.095 64.3073 148.503 64.5175C148.916 64.7278 149.361 65.1112 149.839 65.6678Z" fill="white"/>
<path d="M108.715 61.275V27.7798H121.145L137.606 48.4579V27.7798H149.998V61.275H137.606L121.145 40.9915V61.275H108.715Z" fill="white"/>
<path d="M75.7792 27.7515C75.7792 27.7515 66.9548 31.9166 66.9548 44.3413C66.9548 56.766 75.7792 61.2135 75.7792 61.2135H99.8521C99.8521 61.2135 107.618 57.119 107.618 44.3413C107.618 31.5636 99.8521 27.7515 99.8521 27.7515H75.7792ZM81.8947 35.1285H93.5006C93.5006 35.1285 101.584 44.659 93.5006 53.4834H81.8947C81.8947 53.4834 73.8822 44.0588 81.8947 35.1285Z" fill="white"/>
<path d="M10.3759 61.1751L14.9575 53.2895H37.9308C37.9308 53.2895 40.809 50.8007 37.9308 47.6473H15.7172C15.7172 47.6473 10.0764 45.0049 10.0764 37.6256C10.0764 30.2462 15.7172 27.7798 15.7172 27.7798H48.4137L43.931 35.544H24.2033C24.2033 35.544 21.1333 38.5122 24.2033 41.9067H46.8163C46.8163 41.9067 50.9096 44.4999 50.9096 51.1915C50.9096 57.883 46.8163 61.1751 46.8163 61.1751H10.3759Z" fill="white"/>
<path d="M52.9152 61.2134H65.3311V11.7745C65.3311 11.7745 65.5992 8.41238 62.6485 8.41238C59.6978 8.41238 59.9659 11.7745 59.9659 11.7745V27.7513C59.9659 27.7513 59.1821 28.6302 58.3157 27.7513V3.22714C58.3157 3.22714 58.5099 0.128418 55.6781 0.128418C52.8462 0.128418 52.9152 3.22714 52.9152 3.22714V61.2134Z" fill="white"/>
<path d="M62.6408 5.80122C64.1137 5.80122 65.3078 4.53481 65.3078 2.97263C65.3078 1.41044 64.1137 0.144043 62.6408 0.144043C61.1679 0.144043 59.9739 1.41044 59.9739 2.97263C59.9739 4.53481 61.1679 5.80122 62.6408 5.80122Z" fill="white"/>
<path d="M39.8685 0H33.9738V23.0701C33.9738 23.0701 33.8434 25.3921 36.4121 25.3921C38.9809 25.3921 38.9221 23.0701 38.9221 23.0701C39.4058 24.875 41.7064 25.5581 44.5378 25.2461C49.7339 24.6737 52.4563 16.3281 48.7944 10.6306C46.896 7.67683 43.3515 6.36276 40.3626 8.04774C40.3626 8.04774 39.8332 8.22431 39.8685 7.16538V0ZM42.4813 12.7869C44.226 12.7869 45.6404 14.4146 45.6404 16.4225C45.6404 18.4304 44.226 20.0582 42.4813 20.0582C40.7366 20.0582 39.3222 18.4304 39.3222 16.4225C39.3222 14.4146 40.7366 12.7869 42.4813 12.7869Z" fill="white"/>
<path d="M17.7964 8.18896H23.5964V19.0959C23.5964 21.1021 26.9496 21.0231 26.9496 19.0959V10.7527C26.9496 10.7527 27.1111 8.18896 29.8234 8.18896C32.5356 8.18896 32.809 10.7527 32.809 10.7527V19.9078C32.809 21.0056 32.3855 25.3789 25.4318 25.3789C18.4782 25.3789 17.7964 21.4115 17.7964 20.1901V8.18896Z" fill="white"/>
<path d="M8.85086 8.23096C7.38658 8.23096 6.0573 9.07958 5.3912 10.106C5.3912 10.106 4.51828 8.28999 2.57083 8.28999C0.144193 8.28999 0 10.106 0 10.106V32.8166H6.31586V24.4683C6.31586 24.4683 16.7176 27.6377 16.6727 16.5908C16.7768 12.3922 14.4663 8.23096 8.85086 8.23096ZM9.03601 12.7867C10.7807 12.7867 12.1951 14.4144 12.1951 16.4223C12.1951 18.4302 10.7807 20.058 9.03601 20.058C7.29128 20.058 5.87689 18.4302 5.87689 16.4223C5.87689 14.4144 7.29128 12.7867 9.03601 12.7867Z" fill="white"/>
</svg>
