<?xml version="1.0" encoding="UTF-8" standalone="no"?>
<!-- Created with Inkscape (http://www.inkscape.org/) -->

<svg
   width="2000"
   height="2000"
   viewBox="0 0 2000 2000"
   version="1.1"
   id="svg1"
   xml:space="preserve"
   xmlns="http://www.w3.org/2000/svg"
   xmlns:svg="http://www.w3.org/2000/svg"><defs
     id="defs1" /><g
     id="g15"
     transform="translate(1.9853131,-68.428884)"><path
       style="font-weight:bold;font-size:156.719px;font-family:'Century Gothic';-inkscape-font-specification:'Century Gothic Bold';letter-spacing:0px;word-spacing:0px;stroke-width:61.7003;stroke-linecap:round"
       d="m 197.76926,1409.3533 h 22.72732 q 18.44203,0 26.55346,3.4436 8.18795,3.367 12.85585,11.0193 4.74443,7.5757 4.74443,18.2124 0,11.7846 -6.19836,19.5899 -6.12184,7.8053 -16.682,10.8663 -6.19836,1.76 -22.57427,1.76 v 47.6738 h -21.42643 z m 21.42643,44.0007 h 6.81054 q 8.03491,0 11.17235,-1.1478 3.13744,-1.1479 4.89747,-3.7496 1.83655,-2.6784 1.83655,-6.428 0,-6.5044 -5.05052,-9.4888 -3.6731,-2.2192 -13.62108,-2.2192 h -6.04531 z m 65.65668,-44.0007 h 21.50295 v 72.8499 q 0,9.4123 1.60698,13.315 1.68351,3.9026 5.43313,6.2748 3.82615,2.2957 9.18276,2.2957 5.6627,0 9.71841,-2.6017 4.13224,-2.6018 5.6627,-6.581 1.60698,-4.0557 1.60698,-15.3811 v -70.1716 h 21.50295 v 67.1106 q 0,16.9881 -1.91307,23.5691 -1.91308,6.581 -7.34621,12.7028 -5.3566,6.1219 -12.39671,9.1063 -7.04012,2.9078 -16.37591,2.9078 -12.24368,0 -21.34991,-5.5861 -9.0297,-5.6627 -12.93237,-14.0803 -3.90268,-8.494 -3.90268,-28.6196 z m 101.08681,112.5653 v -112.5653 h 17.6768 q 15.38112,0 22.49775,1.9896 10.10103,2.6783 16.06982,9.948 5.96879,7.2697 5.96879,17.1411 0,6.428 -2.75483,11.7081 -2.6783,5.2035 -8.80014,9.7949 10.25408,4.8209 14.9985,12.0906 4.74442,7.1932 4.74442,17.0646 0,9.4889 -4.89746,17.2942 -4.89747,7.8054 -12.62629,11.708 -7.72882,3.8262 -21.3499,3.8262 z m 21.42643,-92.1336 v 23.7221 h 4.6679 q 7.80534,0 11.55496,-3.2905 3.82615,-3.2905 3.82615,-8.9532 0,-5.2801 -3.59658,-8.341 -3.59658,-3.1374 -10.94278,-3.1374 z m 0,42.8528 v 28.8492 h 5.3566 q 13.315,0 17.90637,-3.3671 4.6679,-3.367 4.6679,-9.7949 0,-7.2697 -5.43313,-11.4784 -5.43312,-4.2088 -18.05941,-4.2088 z m 69.48283,-63.2845 h 21.42642 v 92.1337 h 31.22137 v 20.4316 h -52.64779 z m 67.41671,0 h 21.27338 v 112.5653 h -21.27338 z m 148.83714,19.8195 -14.99849,14.3098 q -15.30459,-16.1464 -34.43533,-16.1464 -16.14634,0 -27.24217,11.0193 -11.0193,11.0193 -11.0193,27.1657 0,11.2488 4.89747,19.9725 4.89746,8.7236 13.85065,13.6976 8.95318,4.974 19.89596,4.974 9.3358,0 17.06462,-3.4436 7.72882,-3.52 16.9881,-12.7028 l 14.53936,15.1516 q -12.47324,12.1671 -23.56907,16.9115 -11.09583,4.6679 -25.3291,4.6679 -26.24737,0 -43.00589,-16.6055 -16.68201,-16.682 -16.68201,-42.6998 0,-16.835 7.57578,-29.9204 7.65229,-13.0855 21.80904,-21.0438 14.23326,-7.9584 30.60917,-7.9584 13.92718,0 26.78304,5.8922 12.93237,5.8923 22.26817,16.7586 z m 17.21767,-19.8195 h 21.27338 v 112.5653 h -21.27338 z m 45.45464,0 h 25.40562 q 24.56387,0 36.50145,6.1219 11.93758,6.0453 19.66639,19.7429 7.72882,13.6976 7.72882,31.9866 0,13.0089 -4.36181,23.9517 -4.28528,10.8662 -11.93758,18.0594 -7.57577,7.1931 -16.45243,9.948 -8.87666,2.7548 -30.76223,2.7548 H 755.7746 Z m 21.3499,20.6612 v 70.9368 h 9.94799 q 14.6924,0 21.27338,-3.367 6.65749,-3.367 10.86625,-11.3254 4.20877,-7.9584 4.20877,-19.5899 0,-17.9064 -10.02451,-27.7778 -9.02971,-8.8767 -29.0022,-8.8767 z m 122.58975,-20.6612 h 21.73251 l 43.31199,112.5653 h -22.26818 l -8.80014,-23.1865 h -45.91376 l -9.18276,23.1865 h -22.26817 z m 11.0193,29.844 -14.9985,38.6441 h 29.92047 z m 70.70719,-29.844 h 25.40566 q 24.5638,0 36.5014,6.1219 11.9376,6.0453 19.6664,19.7429 7.7288,13.6976 7.7288,31.9866 0,13.0089 -4.3618,23.9517 -4.2853,10.8662 -11.9376,18.0594 -7.5757,7.1931 -16.4524,9.948 -8.8767,2.7548 -30.7622,2.7548 h -25.78826 z m 21.34986,20.6612 v 70.9368 h 9.948 q 14.6924,0 21.2734,-3.367 6.6575,-3.367 10.8663,-11.3254 4.2087,-7.9584 4.2087,-19.5899 0,-17.9064 -10.0245,-27.7778 -9.0297,-8.8767 -29.0022,-8.8767 z m 191.1544,-5.3566 -15.8403,14.0037 q -8.341,-11.6315 -16.9881,-11.6315 -4.2088,0 -6.8871,2.2957 -2.6783,2.2192 -2.6783,5.0505 0,2.8314 1.9131,5.3566 2.6018,3.367 15.6872,14.4629 12.2437,10.254 14.8455,12.9323 6.5044,6.581 9.1827,12.6263 2.7548,5.9688 2.7548,13.0855 0,13.8506 -9.5653,22.8803 -9.5654,9.0297 -24.9465,9.0297 -12.0141,0 -20.9673,-5.8922 -8.8766,-5.8923 -15.2281,-18.5186 l 17.9829,-10.8663 q 8.1115,14.922 18.6716,14.922 5.5097,0 9.2593,-3.2139 3.7496,-3.214 3.7496,-7.4228 0,-3.8261 -2.8313,-7.6523 -2.8314,-3.8261 -12.4733,-11.708 -18.3655,-14.9985 -23.7221,-23.1099 -5.3566,-8.188 -5.3566,-16.2994 0,-11.708 8.8767,-20.049 8.9532,-8.4175 22.0386,-8.4175 8.4175,0 15.9933,3.9026 7.6523,3.9027 16.529,14.2333 z m 20.9672,-15.3046 h 21.2734 v 112.5653 h -21.2734 z m 45.4547,0 h 20.5081 l 48.286,74.0742 v -74.0742 h 21.4264 v 112.5653 h -20.5846 l -48.2095,-73.8447 v 73.8447 h -21.4264 z m 159.7034,0 h 21.4264 v 92.1337 h 31.2214 v 20.4316 h -52.6478 z m 67.4167,0 h 21.2733 v 112.5653 h -21.2733 z m 56.2443,0 h 20.9673 l 26.0178,78.5126 26.4004,-78.5126 h 20.6612 l 18.9777,112.5653 h -20.6612 l -12.0906,-71.0898 -23.9517,71.0898 h -18.9011 l -23.6456,-71.0898 -12.3202,71.0898 h -20.8908 z m 128.6352,0 h 21.2734 v 112.5653 h -21.2734 z m 34.2823,0 h 62.2131 v 21.1204 h -20.5081 v 91.4449 h -21.7326 v -91.4449 h -19.9724 z m 76.982,0 h 61.4479 v 20.9673 h -40.1745 v 20.3551 h 40.1745 v 20.5847 h -40.1745 v 29.6144 h 40.1745 v 21.0438 h -61.4479 z m 140.4196,15.3046 -15.8402,14.0037 q -8.341,-11.6315 -16.9881,-11.6315 -4.2088,0 -6.8871,2.2957 -2.6783,2.2192 -2.6783,5.0505 0,2.8314 1.9131,5.3566 2.6018,3.367 15.6872,14.4629 12.2437,10.254 14.8454,12.9323 6.5045,6.581 9.1828,12.6263 2.7548,5.9688 2.7548,13.0855 0,13.8506 -9.5654,22.8803 -9.5653,9.0297 -24.9464,9.0297 -12.0141,0 -20.9673,-5.8922 -8.8767,-5.8923 -15.2281,-18.5186 l 17.9829,-10.8663 q 8.1114,14.922 18.6716,14.922 5.5097,0 9.2593,-3.2139 3.7496,-3.214 3.7496,-7.4228 0,-3.8261 -2.8313,-7.6523 -2.8314,-3.8261 -12.4733,-11.708 -18.3655,-14.9985 -23.7221,-23.1099 -5.3566,-8.188 -5.3566,-16.2994 0,-11.708 8.8767,-20.049 8.9531,-8.4175 22.0386,-8.4175 8.4175,0 15.9933,3.9026 7.6523,3.9027 16.5289,14.2333 z"
       id="text15"
       aria-label="PUBLICIDAD SIN LIMITES" /><path
       style="fill:#000000;fill-opacity:1;stroke-width:37.7953;stroke-linecap:round"
       d="M 1403.3528,1240.2872 V 825.82865 h 153.8005 l 203.6822,255.86355 V 825.82865 h 153.3328 V 1240.2872 H 1760.8355 L 1557.1533,989.30549 v 250.98171 z"
       id="path8"
       transform="translate(11.842343,130.01604)" /><path
       id="path10"
       style="fill:#000000;fill-opacity:1;stroke-width:37.7953;stroke-linecap:round"
       d="m 995.81445,825.47852 c 0,0 -109.18945,51.53778 -109.18945,205.27738 0,153.7396 109.18945,208.7714 109.18945,208.7714 h 297.87105 c 0,0 96.0879,-50.6642 96.0879,-208.7714 0,-158.1072 -96.0879,-205.27738 -96.0879,-205.27738 z m 75.67185,91.28125 h 143.6075 c 0,0 100.018,117.92723 0,227.11723 h -143.6075 c 0,0 -99.1446,-116.6169 0,-227.11723 z"
       transform="translate(11.842343,130.01604)" /><path
       style="fill:#000000;fill-opacity:1;stroke-width:37.7953;stroke-linecap:round"
       d="m 186.53721,1239.0518 56.69127,-97.5745 h 284.26417 c 0,0 35.61308,-30.7954 0,-69.8148 H 252.62821 c 0,0 -69.79704,-32.6957 -69.79704,-124.00531 0,-91.30963 69.79704,-121.82854 69.79704,-121.82854 h 404.57574 l -55.46701,96.07169 H 357.6326 c 0,0 -37.98688,36.72798 0,78.72976 h 279.80582 c 0,0 50.64918,32.0879 50.64918,114.8871 0,82.7992 -50.64918,123.5346 -50.64918,123.5346 z"
       id="path11"
       transform="translate(11.842343,130.01604)" /><path
       style="opacity:1;fill:#e41f2e;fill-opacity:1;stroke-width:37.7953;stroke-linecap:round"
       d="M 712.90263,1239.5268 H 866.5332 V 627.78525 c 0,0 3.31773,-41.60145 -33.19381,-41.60145 -36.51154,0 -33.19381,41.60145 -33.19381,41.60145 V 825.4777 c 0,0 -9.69787,10.87512 -20.41857,0 V 522.02333 c 0,0 2.4033,-38.34261 -32.6375,-38.34261 -35.0408,0 -34.18688,38.34261 -34.18688,38.34261 z"
       id="path1"
       transform="translate(11.842343,130.01604)" /><ellipse
       style="display:inline;opacity:1;fill:#e41f2e;fill-opacity:1;stroke-width:46.522;stroke-linecap:round"
       id="path2"
       cx="833.24463"
       cy="518.87256"
       rx="33"
       ry="35"
       transform="translate(11.842343,130.01604)" /><path
       id="path15"
       style="opacity:1;fill:#000000;fill-opacity:1;stroke-width:37.7953;stroke-linecap:round"
       d="m 551.46733,482.0918 h -72.93945 v 285.46191 c 0,0 -1.61358,28.73165 30.17129,28.73165 31.78487,0 31.05842,-28.73165 31.05842,-28.73165 5.98404,22.33276 34.45107,30.78536 69.48642,26.92538 64.29489,-7.08362 97.98074,-110.34818 52.66986,-180.84725 -23.49095,-36.5495 -67.34942,-52.80938 -104.33326,-31.95996 0,0 -6.55004,2.18483 -6.11328,-10.91797 z m 32.33008,158.2207 c 21.58875,1.6e-4 39.08983,20.14117 39.08984,44.98633 -10e-6,24.84516 -17.50109,44.98617 -39.08984,44.98633 -21.58876,-1.5e-4 -39.08984,-20.14117 -39.08985,-44.98633 1e-5,-24.84516 17.50109,-44.98618 39.08985,-44.98633 z"
       transform="translate(11.842343,130.01604)" /><path
       style="opacity:1;fill:#000000;fill-opacity:1;stroke-width:37.7953;stroke-linecap:round"
       d="m 278.35305,583.41947 h 71.76706 v 134.95905 c 0,24.82443 41.49226,23.84619 41.49226,0 V 615.14285 c 0,0 1.99834,-31.72338 35.55853,-31.72338 33.56019,0 36.94375,31.72338 36.94375,31.72338 v 113.28116 c 0,13.58449 -5.24113,67.69791 -91.28298,67.69791 -86.04185,0 -94.47862,-49.09081 -94.47862,-64.20382 z"
       id="path14"
       transform="translate(11.842343,130.01604)" /><path
       id="path13"
       style="opacity:1;fill:#000000;fill-opacity:1;stroke-width:37.7953;stroke-linecap:round"
       d="m 167.6646,583.94141 c -18.11848,0 -34.56653,10.50056 -42.8086,23.20144 0,0 -10.8013,-22.47097 -34.898444,-22.47097 -30.026348,0 -31.810542,22.47097 -31.810542,22.47097 v 281.0134 H 136.29741 V 784.85742 c 0,0 128.70794,39.21718 128.15234,-97.47461 1.28831,-51.95214 -27.30201,-103.4414 -96.78515,-103.4414 z m 2.29101,56.37109 c 21.58876,1.5e-4 39.08984,20.14117 39.08985,44.98633 -1e-5,24.84516 -17.50109,44.98618 -39.08985,44.98633 -21.58875,-1.6e-4 -39.08983,-20.14117 -39.08984,-44.98633 1e-5,-24.84516 17.50109,-44.98617 39.08984,-44.98633 z"
       transform="translate(11.842343,130.01604)" /></g></svg>
