<svg width="26" height="25" viewBox="0 0 26 25" fill="none" xmlns="http://www.w3.org/2000/svg">
<path d="M13 0C6.10767 0 0.500081 5.60759 0.500081 12.5C0.500081 14.6521 1.05606 16.7684 2.1104 18.6358L0.520189 24.3097C0.468016 24.4961 0.518559 24.6961 0.653341 24.8347C0.757145 24.9418 0.898449 24.9999 1.04356 24.9999C1.08704 24.9999 1.13106 24.9945 1.17399 24.9842L7.09571 23.5173C8.90386 24.488 10.9403 24.9999 13 24.9999C19.8924 24.9999 25.5 19.3923 25.5 12.5C25.5 5.60759 19.8924 0 13 0ZM19.2881 16.9108C19.0207 17.651 17.7381 18.3266 17.1218 18.4173C16.5685 18.4983 15.8685 18.5331 15.1 18.2918C14.6343 18.1451 14.0365 17.9505 13.2707 17.6239C10.0517 16.251 7.94951 13.0505 7.78864 12.8391C7.62832 12.6277 6.47832 11.1212 6.47832 9.56193C6.47832 8.00269 7.30712 7.23585 7.60169 6.91846C7.89625 6.60107 8.24353 6.52172 8.45766 6.52172C8.67179 6.52172 8.88538 6.52444 9.07288 6.53313C9.27016 6.54291 9.53483 6.45868 9.79516 7.07715C10.0626 7.71193 10.7044 9.27117 10.7837 9.4304C10.8642 9.5891 10.9174 9.77443 10.8109 9.98584C10.7044 10.1973 10.6511 10.3293 10.4903 10.5146C10.3294 10.7 10.1533 10.9277 10.0087 11.0701C9.84788 11.2282 9.68103 11.3994 9.86799 11.7168C10.0549 12.0342 10.699 13.0717 11.6533 13.9119C12.8788 14.9913 13.9131 15.326 14.2337 15.4847C14.5544 15.6434 14.7419 15.6168 14.9288 15.4054C15.1158 15.1934 15.731 14.4798 15.9446 14.163C16.1582 13.8462 16.3723 13.8983 16.6669 14.0043C16.9614 14.1097 18.5392 14.876 18.8598 15.0347C19.1805 15.1934 19.3946 15.2728 19.475 15.4048C19.5555 15.5364 19.5555 16.1711 19.2881 16.9108Z" fill="white"/>
</svg>
