<svg width="22" height="22" viewBox="0 0 22 22" fill="none" xmlns="http://www.w3.org/2000/svg">
<path d="M11 0C4.93475 0 7.09849e-05 4.93468 7.09849e-05 11C7.09849e-05 12.8939 0.48933 14.7562 1.41715 16.3995L0.0177666 21.3925C-0.0281463 21.5566 0.0163318 21.7326 0.13494 21.8545C0.226288 21.9488 0.350635 21.9999 0.47833 21.9999C0.516591 21.9999 0.55533 21.9951 0.593113 21.9861L5.80423 20.6952C7.39539 21.5494 9.18743 21.9999 11 21.9999C17.0653 21.9999 22 17.0652 22 11C22 4.93468 17.0653 0 11 0ZM16.5335 14.8815C16.2982 15.5329 15.1695 16.1274 14.6272 16.2073C14.1403 16.2785 13.5243 16.3091 12.848 16.0968C12.4382 15.9676 11.9121 15.7964 11.2382 15.509C8.40548 14.3009 6.55557 11.4844 6.41401 11.2984C6.27292 11.1124 5.26092 9.78662 5.26092 8.41449C5.26092 7.04237 5.99027 6.36754 6.24949 6.08824C6.5087 5.80894 6.81431 5.73911 7.00274 5.73911C7.19118 5.73911 7.37913 5.7415 7.54413 5.74916C7.71774 5.75776 7.95065 5.68363 8.17974 6.22789C8.41504 6.7865 8.97987 8.15863 9.04969 8.29876C9.12048 8.43841 9.16735 8.60149 9.07361 8.78754C8.97987 8.97358 8.933 9.0898 8.79143 9.25288C8.64987 9.41597 8.49491 9.61636 8.3677 9.74166C8.22613 9.88084 8.07931 10.0315 8.24383 10.3108C8.40835 10.5901 8.97509 11.5031 9.81491 12.2425C10.8934 13.1923 11.8035 13.4869 12.0857 13.6266C12.3679 13.7662 12.5329 13.7428 12.6974 13.5567C12.8619 13.3702 13.4033 12.7423 13.5912 12.4634C13.7792 12.1846 13.9676 12.2305 14.2269 12.3238C14.4861 12.4166 15.8745 13.0909 16.1566 13.2306C16.4388 13.3702 16.6272 13.44 16.698 13.5563C16.7688 13.672 16.7688 14.2306 16.5335 14.8815Z" fill="#E41F2E"/>
</svg>
